<svg width="29" height="20" viewBox="0 0 29 20" fill="none" xmlns="http://www.w3.org/2000/svg">
<path fill-rule="evenodd" clip-rule="evenodd" d="M24.9682 9.21094L19.2397 3.48793V1.03516L27.9301 9.72554L27.9115 9.74418L28.1861 10.0188L19.2399 18.965L19.3393 16.5701L24.9527 10.8461L0.813965 10.8461V9.21094L24.9682 9.21094Z" fill="black"/>
<path d="M24.9682 9.21094V9.46094H25.5721L25.1449 9.03408L24.9682 9.21094ZM19.2397 3.48793H18.9897V3.59156L19.0631 3.66479L19.2397 3.48793ZM19.2397 1.03516L19.4165 0.85838L18.9897 0.431603V1.03516H19.2397ZM27.9301 9.72554L28.1069 9.90232L28.2837 9.72554L28.1069 9.54876L27.9301 9.72554ZM27.9115 9.74418L27.7347 9.56741L27.5579 9.74418L27.7347 9.92096L27.9115 9.74418ZM28.1861 10.0188L28.3629 10.1956L28.5397 10.0188L28.3629 9.84207L28.1861 10.0188ZM19.2399 18.965L18.9902 18.9547L18.9636 19.5949L19.4167 19.1418L19.2399 18.965ZM19.3393 16.5701L19.1608 16.395L19.0935 16.4637L19.0895 16.5597L19.3393 16.5701ZM24.9527 10.8461L25.1312 11.0212L25.5481 10.5961H24.9527V10.8461ZM0.813965 10.8461H0.563965V11.0961H0.813965L0.813965 10.8461ZM0.813965 9.21094L0.813965 8.96094H0.563965V9.21094H0.813965ZM25.1449 9.03408L19.4164 3.31107L19.0631 3.66479L24.7915 9.3878L25.1449 9.03408ZM19.4897 3.48793V1.03516H18.9897V3.48793H19.4897ZM19.063 1.21193L27.7534 9.90232L28.1069 9.54876L19.4165 0.85838L19.063 1.21193ZM27.7534 9.54876L27.7347 9.56741L28.0883 9.92096L28.1069 9.90232L27.7534 9.54876ZM28.3629 9.84207L28.0883 9.56741L27.7347 9.92096L28.0094 10.1956L28.3629 9.84207ZM19.4167 19.1418L28.3629 10.1956L28.0094 9.84207L19.0632 18.7883L19.4167 19.1418ZM19.0895 16.5597L18.9902 18.9547L19.4897 18.9754L19.5891 16.5805L19.0895 16.5597ZM24.7743 10.6711L19.1608 16.395L19.5178 16.7451L25.1312 11.0212L24.7743 10.6711ZM0.813965 11.0961L24.9527 11.0961V10.5961L0.813965 10.5961L0.813965 11.0961ZM0.563965 9.21094V10.8461H1.06396V9.21094H0.563965ZM24.9682 8.96094L0.813965 8.96094L0.813965 9.46094L24.9682 9.46094V8.96094Z" fill="black"/>
</svg>
