<svg width="40" height="40" viewBox="0 0 40 40" fill="none" xmlns="http://www.w3.org/2000/svg">
<path fill-rule="evenodd" clip-rule="evenodd" d="M25.5 14.3C24.8373 14.3 24.3 14.8373 24.3 15.5C24.3 16.1627 24.8373 16.7 25.5 16.7C26.1627 16.7 26.7 16.1627 26.7 15.5C26.7 14.8373 26.1627 14.3 25.5 14.3ZM25.5 12.5C24.1202 12.5 22.9579 13.4315 22.6078 14.7H8.5V16.5H22.6707C23.0825 17.6652 24.1938 18.5 25.5 18.5C26.8062 18.5 27.9175 17.6652 28.3293 16.5L31.5 16.5V14.7L28.3922 14.7C28.0421 13.4315 26.8798 12.5 25.5 12.5Z" fill="black"/>
<path fill-rule="evenodd" clip-rule="evenodd" d="M14.5 25.7C15.1627 25.7 15.7 25.1627 15.7 24.5C15.7 23.8373 15.1627 23.3 14.5 23.3C13.8373 23.3 13.3 23.8373 13.3 24.5C13.3 25.1627 13.8373 25.7 14.5 25.7ZM14.5 27.5C15.8798 27.5 17.0421 26.5685 17.3922 25.3L31.5 25.3L31.5 23.5L17.3293 23.5C16.9175 22.3348 15.8062 21.5 14.5 21.5C13.1938 21.5 12.0825 22.3348 11.6707 23.5L8.5 23.5L8.5 25.3L11.6078 25.3C11.9579 26.5685 13.1202 27.5 14.5 27.5Z" fill="black"/>
</svg>
