<svg width="116" height="117" viewBox="0 0 116 117" fill="none" xmlns="http://www.w3.org/2000/svg">
<path d="M58.059 92.0482C39.5634 92.0756 24.2622 77.0091 24.2607 58.0614C24.2607 39.0445 39.6652 24.014 58.1493 24.0587C76.6005 24.1048 91.8816 39.1555 91.873 58.0845C91.8587 76.9659 76.5905 92.0828 58.059 92.0482ZM58.059 47.2683C57.8239 45.172 57.2102 43.2198 56.0933 41.4392C54.7707 39.315 52.8637 37.6221 50.6036 36.5658C48.3434 35.5094 45.8271 35.135 43.3595 35.4878C40.892 35.8406 38.5792 36.9055 36.7014 38.5535C34.8237 40.2015 33.4616 42.3618 32.7802 44.7726C31.9687 47.5552 32.1363 50.5341 33.2548 53.207C34.6369 56.5706 37.06 58.9106 40.4136 60.361C39.9669 61.504 39.628 62.6866 39.4013 63.8934C39.1747 65.1165 39.0672 66.3589 39.0802 67.603C39.0969 68.8296 39.2284 70.0518 39.473 71.2536C39.9686 73.6766 40.9311 75.9787 42.3062 78.0299C45.042 82.1316 49.2528 85.0068 54.0533 86.0509C58.8537 87.0949 63.8698 86.2266 68.0466 83.6283C68.5843 83.2924 69.1076 82.9247 69.6109 82.5383C70.1013 82.1605 70.5727 81.7582 71.0231 81.333C71.4848 80.9005 71.9293 80.4362 72.3465 79.9561C72.7637 79.476 73.158 78.9743 73.5265 78.4552C73.895 77.9362 74.2434 77.397 74.5516 76.8433C74.8581 76.3043 75.1371 75.75 75.3875 75.1824C75.6442 74.6057 75.8764 74.0045 76.0757 73.3989C76.2747 72.7937 76.4431 72.1787 76.5804 71.5564C76.7144 70.9502 76.8177 70.3376 76.8901 69.721C76.9675 69.0881 77.0192 68.4493 77.0335 67.8121C77.0466 67.1743 77.0275 66.5362 76.9761 65.9003C76.926 65.2645 76.8457 64.6301 76.7338 64.0029C76.622 63.3758 76.4758 62.7875 76.3123 62.1892C76.1489 61.5908 75.9338 60.981 75.7388 60.3538C78.8372 59.0288 81.1599 56.8936 82.5922 53.8514C84.0245 50.8093 84.2253 47.6518 83.2374 44.4295C82.3644 41.6019 80.5505 39.1625 78.1003 37.5208C75.65 35.8792 72.7127 35.1353 69.7815 35.4141C63.6593 35.9533 58.664 40.8178 58.059 47.2683Z" fill="#1EF868"/>
<path d="M67.5885 11.6291C67.4867 11.6478 67.4738 11.7329 67.4451 11.8136C67.1813 12.82 66.9166 13.8259 66.6508 14.8313C66.0697 17.0545 65.4895 19.2782 64.9102 21.5023C64.873 21.6465 64.8242 21.7907 64.774 21.9493C64.3644 21.9291 63.9579 21.8663 63.5611 21.7618C63.5452 21.6506 63.537 21.5383 63.5367 21.4259C63.574 20.8386 63.6151 20.2523 63.66 19.667C63.8263 17.4899 63.9941 15.3133 64.1632 13.1372C64.2077 12.5518 64.2622 11.9665 64.3066 11.3811C64.3195 11.2139 64.321 11.0466 64.3339 10.7756C64.146 11.2312 64.1202 11.6175 64.0557 11.9924C63.6198 14.5386 63.1897 17.0857 62.7653 19.6338C62.685 20.1125 62.6105 20.594 62.5287 21.0756C62.5044 21.2197 62.4671 21.3639 62.4312 21.5413C61.9352 21.5542 61.4721 21.4043 60.9975 21.3408C60.5229 21.2774 60.0469 21.1736 59.5522 21.0842C59.5428 20.9643 59.5428 20.8437 59.5522 20.7238C60.0302 17.8777 60.5129 15.0321 61.0003 12.187C61.4286 9.72258 61.8467 7.25716 62.2549 4.79077C62.5063 3.30094 62.7605 1.81111 63.0177 0.321281C63.0334 0.224682 63.0549 0.128084 63.0793 0.00553306C63.1657 -0.00184436 63.2525 -0.00184436 63.3388 0.00553306C64.5991 0.234775 65.8694 0.416438 67.1584 0.675956C67.0064 2.29506 66.8215 3.87669 66.6551 5.45975C66.4888 7.04281 66.3139 8.61146 66.1935 10.196C66.9691 7.12932 67.6645 4.04105 68.3986 0.929708C68.4973 0.920478 68.5967 0.920478 68.6954 0.929708C69.8424 1.12194 70.9937 1.31995 72.1493 1.52372C72.2155 1.53936 72.2803 1.56058 72.3429 1.58715C72.3524 1.65544 72.3557 1.72444 72.3529 1.79333C72.1594 3.27835 68.9191 22.2088 68.7886 22.6269C68.4072 22.6269 66.41 22.2924 65.8752 22.1353C65.867 22.0393 65.867 21.9429 65.8752 21.8469C66.29 19.3988 66.7058 16.9502 67.1225 14.5011C67.2659 13.6908 67.3993 12.8805 67.534 12.0688C67.5584 11.9246 67.5627 11.7689 67.5771 11.6175C67.6143 11.5397 67.676 11.4647 67.5656 11.358C67.5756 11.4676 67.5828 11.5483 67.5885 11.6291Z" fill="#1EF868"/>
<path d="M24.6699 73.1879C25.1617 74.311 25.6306 75.3822 26.0922 76.4391C25.9804 76.6308 25.8055 76.6524 25.6535 76.7188C22.7984 77.9846 19.9428 79.2486 17.0867 80.5106L7.14354 84.9051C6.99156 84.9714 6.83958 85.0349 6.66896 85.107C6.41519 84.771 6.30909 84.3861 6.1399 84.0228C5.97072 83.6594 5.83164 83.3163 5.6768 82.9616L5.20365 81.876C5.33412 81.6842 5.52625 81.6525 5.68827 81.5804C8.14575 80.4904 10.6047 79.4033 13.065 78.3191C13.2457 78.2384 13.4235 78.1504 13.6141 78.0596C13.5761 77.8141 13.4775 77.5821 13.3274 77.3849C13.1668 77.4497 13.012 77.5045 12.8628 77.5708L5.98506 80.6101C5.6983 80.7384 5.40438 80.8682 5.11332 80.9922C5.02626 81.0221 4.93773 81.0477 4.84808 81.0686C4.36633 79.9656 3.89175 78.88 3.41431 77.7813C3.49093 77.7281 3.57091 77.68 3.65375 77.6372L22.8405 69.1523C23.0885 69.4969 23.8082 71.0858 24.3244 72.4194C24.2455 72.5924 24.062 72.6112 23.9158 72.6746C21.7173 73.6521 19.5189 74.6267 17.3204 75.5985C17.1556 75.6706 16.9677 75.7095 16.8358 75.8681C16.9042 76.0969 17.0005 76.3163 17.1226 76.5212L24.6699 73.1879Z" fill="#1EF868"/>
<path d="M34.1896 87.2898C34.182 87.8508 34.0309 88.4005 33.7508 88.8858C33.4388 89.4424 33.0487 89.9508 32.5923 90.3953L29.1656 93.9305C27.2902 95.8664 25.4154 97.8036 23.5409 99.7423C23.189 100.124 22.7934 100.463 22.3624 100.752C21.9151 101.047 21.4126 101.248 20.8856 101.341C20.2545 101.436 19.6095 101.345 19.0289 101.079C18.1786 100.723 16.7348 99.2752 16.3448 98.4404C16.1424 98.0243 16.0318 97.569 16.0207 97.1059C16.0096 96.6428 16.0981 96.1827 16.2803 95.7573C16.531 95.1673 16.8889 94.6294 17.3356 94.1713C17.6697 93.8181 18.008 93.4706 18.3464 93.1217L26.6995 84.4971C27.1209 84.0424 27.6035 83.6493 28.1333 83.3292C28.6055 83.0398 29.1423 82.8737 29.6947 82.8462C30.1976 82.8257 30.6976 82.9328 31.1485 83.1576C31.2073 83.1865 31.269 83.2153 31.3263 83.2499C32.3051 83.837 33.1327 84.6475 33.7422 85.6159C34.0569 86.1152 34.2129 86.6991 34.1896 87.2898ZM30.5664 86.9322C30.5664 86.615 30.261 86.4276 30.0316 86.5732C29.8516 86.6933 29.6861 86.8341 29.5384 86.9928C27.1488 89.4553 24.7592 91.9202 22.3696 94.3876C21.5972 95.1921 20.8196 95.9985 20.0368 96.8069C19.9204 96.9261 19.8184 97.0587 19.7328 97.2019C19.6967 97.2691 19.6841 97.3465 19.6968 97.4217C19.7095 97.497 19.7469 97.5658 19.8031 97.6171C19.8546 97.6732 19.9225 97.7113 19.997 97.7261C20.0714 97.7409 20.1486 97.7315 20.2175 97.6993C20.2941 97.6669 20.3652 97.6226 20.4282 97.5681C20.5286 97.4802 20.6204 97.3821 20.715 97.2798L30.1478 87.5377C30.2654 87.419 30.3741 87.2918 30.4732 87.1571C30.5145 87.0868 30.5459 87.0111 30.5664 86.9322Z" fill="#1EF868"/>
<path d="M96.8549 99.9809C96.8742 100.73 96.6248 101.461 96.1523 102.04C95.5407 102.823 94.7666 103.462 93.8841 103.914C92.7643 104.475 91.656 104.396 90.5979 103.721C90.0819 103.376 89.624 102.951 89.2416 102.461C87.999 100.946 86.7564 99.4315 85.5138 97.9177C83.9682 96.0386 82.4259 94.158 80.887 92.276C80.5839 91.8973 80.3052 91.4996 80.0525 91.0851C79.8085 90.6825 79.6431 90.2367 79.5651 89.7717C79.4365 89.1053 79.5516 88.4146 79.8891 87.8267C80.06 87.5196 80.2655 87.2333 80.5013 86.9732C81.0039 86.4324 81.5746 85.9598 82.1989 85.5675C82.581 85.3261 83.003 85.1552 83.4448 85.0629C84.0222 84.9455 84.6214 85.0042 85.1654 85.2316C85.573 85.3863 85.9484 85.6161 86.2722 85.9092C86.5976 86.1977 86.9028 86.5084 87.1855 86.8391C90.0311 90.2907 92.8719 93.7462 95.7079 97.2055C96.0629 97.6292 96.3529 98.104 96.5681 98.6141C96.7591 99.044 96.8569 99.51 96.8549 99.9809ZM93.2088 100.19C93.1907 100.122 93.1642 100.058 93.1299 99.9967C93.037 99.8575 92.937 99.7233 92.8303 99.5945C91.906 98.467 90.9807 97.3405 90.0545 96.215C88.1094 93.8457 86.1628 91.4754 84.2148 89.1042C84.0964 88.9638 83.97 88.8304 83.8362 88.7048C83.7744 88.6481 83.6953 88.614 83.6118 88.6082C83.5283 88.6024 83.4452 88.6251 83.3762 88.6727C83.3071 88.7202 83.2561 88.7899 83.2313 88.8703C83.2065 88.9507 83.2095 89.0372 83.2398 89.1157C83.3522 89.3211 83.4853 89.5143 83.637 89.6924C85.6662 92.1665 87.6964 94.6396 89.7276 97.1117C90.5678 98.1335 91.4089 99.1552 92.251 100.177C92.366 100.32 92.4969 100.449 92.641 100.562C92.6958 100.603 92.7621 100.625 92.8303 100.625C92.8984 100.625 92.9648 100.603 93.0195 100.562C93.0822 100.523 93.133 100.468 93.1664 100.403C93.1998 100.337 93.2145 100.263 93.2088 100.19Z" fill="#1EF868"/>
<path d="M70.371 92.9662C70.5273 92.8811 70.6405 92.8133 70.7581 92.7557L75.2644 90.5699C75.3992 90.5051 75.5369 90.4431 75.6774 90.3897C76.5677 90.0567 77.4165 90.2614 78.0345 90.9823C78.2321 91.2099 78.4003 91.4618 78.5349 91.732C79.2995 93.3006 80.0528 94.8736 80.7945 96.4509C80.8982 96.68 80.9784 96.9191 81.0339 97.1646C81.165 97.6572 81.1013 98.1816 80.8561 98.628C80.8031 98.726 80.7543 98.8284 80.687 98.961C80.8404 98.9798 80.9522 98.9884 81.064 99.0072C81.3971 99.0493 81.7146 99.1736 81.9883 99.3691C82.262 99.5645 82.4833 99.8251 82.6326 100.127C82.7243 100.306 82.8118 100.488 82.8978 100.67C83.9273 102.817 84.9567 104.964 85.9862 107.11C86.2443 107.651 86.4564 108.217 86.8923 108.653C86.5711 108.895 84.6083 109.872 83.738 110.227C83.533 110.211 83.4197 110.055 83.3194 109.906C83.2004 109.721 83.095 109.528 83.0039 109.329C81.9353 107.108 80.869 104.886 79.8052 102.662C79.7392 102.527 79.679 102.388 79.6045 102.257C79.4611 101.997 79.3492 101.958 79.0711 102.061C79.0118 102.087 78.9555 102.12 78.9033 102.159C78.8446 102.354 78.9736 102.488 79.0467 102.632C80.0418 104.721 81.0401 106.809 82.0419 108.893C82.2741 109.378 82.5064 109.861 82.7358 110.347C82.7788 110.436 82.8118 110.53 82.862 110.655C81.8024 111.202 80.73 111.698 79.679 112.211C79.4883 112.111 79.4582 111.934 79.3923 111.787C78.3026 109.521 77.2153 107.253 76.1304 104.985C74.2895 101.14 72.449 97.2991 70.609 93.4621C70.533 93.3151 70.4584 93.1608 70.371 92.9662ZM74.8673 93.8024C74.9719 94.1989 77.2746 99.0115 77.537 99.3864C77.5966 99.3682 77.6546 99.345 77.7104 99.3172C77.98 99.1528 78.023 99.0288 77.9126 98.7404C77.8768 98.6467 77.8323 98.5573 77.7893 98.4665L75.7075 94.1225C75.6573 94.0172 75.6085 93.9091 75.5483 93.8096C75.5163 93.7399 75.4589 93.6851 75.3879 93.6567C75.317 93.6282 75.2379 93.6283 75.1669 93.6568C75.0631 93.6966 74.9628 93.7453 74.8673 93.8024Z" fill="#1EF868"/>
<path d="M35.1056 99.5271C35.1658 99.5184 35.249 99.5271 35.2791 99.4983C35.3833 99.3476 35.479 99.1911 35.5658 99.0297C37.1162 96.324 38.6666 93.6173 40.217 90.9096C40.3073 90.751 40.4077 90.5982 40.5037 90.4468C40.9152 90.6054 42.7318 91.6637 43.063 91.9318C42.911 92.3053 33.1585 109.309 32.5535 110.254C32.5089 110.312 32.461 110.368 32.4101 110.421L29.5669 108.763C29.6315 108.59 29.6831 108.436 29.7447 108.284C31.1393 104.904 32.5348 101.523 33.9313 98.143C34.0073 97.9613 34.0747 97.7768 34.188 97.4913C34.0284 97.6251 33.9014 97.7937 33.8166 97.9844C32.5282 100.224 31.2416 102.464 29.9569 104.706L28.3798 107.455C28.2981 107.6 28.2077 107.744 28.1045 107.908C27.2242 107.408 26.3768 106.913 25.5366 106.414C25.5419 106.354 25.5544 106.294 25.5739 106.237C29.0694 100.161 32.5702 94.0873 36.0763 88.0146C36.105 87.9777 36.1388 87.9452 36.1766 87.918C36.5537 88.0708 38.7001 89.3064 39.2664 89.6942C39.3309 89.8744 39.2047 90.0129 39.1431 90.1599C38.0429 92.7551 36.9403 95.3503 35.8354 97.9455C35.6461 98.3924 35.4583 98.8423 35.2619 99.2878C35.2153 99.3743 35.1616 99.4568 35.1013 99.5343C35.1048 99.5645 35.1106 99.5944 35.1185 99.6237C35.1185 99.6381 35.14 99.6496 35.1529 99.6626C35.1544 99.6473 35.1544 99.6318 35.1529 99.6165C35.1371 99.5833 35.1185 99.5559 35.1056 99.5271Z" fill="#1EF868"/>
<path d="M83.2025 21.8792C83.0276 21.9383 82.9717 22.1099 82.8785 22.2411C81.6512 23.9817 80.4263 25.7234 79.2037 27.466C79.1105 27.6001 79.0073 27.7284 78.917 27.8524C78.5413 27.6765 76.666 26.3602 76.005 25.8138C76.0251 25.6292 76.1699 25.5038 76.2717 25.3596C77.9521 22.9759 79.6353 20.5936 81.3214 18.2127L87.9741 8.80953C88.0702 8.674 88.172 8.54136 88.2609 8.41016C88.5978 8.55433 90.5965 9.95285 91.1858 10.4589C91.1485 10.6435 91.008 10.7732 90.899 10.9203C89.7721 12.5053 88.6432 14.0912 87.5124 15.6781C87.4076 15.8207 87.3196 15.9751 87.2501 16.138C87.6922 15.7638 88.1094 15.3606 88.4989 14.9313C88.9104 14.5132 89.3161 14.0893 89.7247 13.6697C90.1334 13.2502 90.5191 12.8522 90.9162 12.4442C91.3134 12.0362 91.732 11.6066 92.1507 11.1755C92.5335 11.3543 92.8346 11.6224 93.1543 11.8473C93.4741 12.0723 93.7809 12.2943 94.0934 12.5178L95.0827 13.2271C94.9852 13.3896 94.8594 13.5332 94.7114 13.651C92.6802 15.6483 90.6467 17.6423 88.6107 19.6329C88.274 19.957 87.996 20.3375 87.7892 20.7575C86.2273 23.9294 84.6578 27.1013 83.0807 30.2732C83.0075 30.4173 82.9258 30.5615 82.8498 30.7057C82.457 30.4981 80.1257 28.8314 79.7887 28.5171C79.8647 28.3642 79.9421 28.1999 80.0267 28.0399C81.016 26.154 82.0048 24.2677 82.9932 22.3809C83.0749 22.2238 83.2197 22.0825 83.1782 21.8763C83.3115 21.8763 83.2957 21.7912 83.2556 21.6932C83.2484 21.7509 83.2255 21.8157 83.2025 21.8792Z" fill="#1EF868"/>
<path d="M13.1934 49.07C13.3583 48.2915 14.0795 46.0164 14.2616 45.7035L14.7247 45.8405L19.2224 47.226C19.3811 47.2791 19.5424 47.3238 19.7056 47.3601C19.7882 47.3792 19.8749 47.3656 19.9478 47.3221C20.0207 47.2786 20.0741 47.2086 20.097 47.1265C20.1139 47.0875 20.1228 47.0455 20.1233 47.0029C20.1237 46.9604 20.1157 46.9182 20.0996 46.8788C20.0836 46.8394 20.0599 46.8037 20.0299 46.7737C19.9999 46.7437 19.9642 46.72 19.925 46.7041C19.7439 46.6192 19.5564 46.5489 19.3644 46.4936C17.4345 45.8957 15.5047 45.2998 13.5748 44.7058L6.15649 42.4191C5.98231 42.362 5.8033 42.321 5.6217 42.2966C5.58005 42.2898 5.53748 42.2915 5.49647 42.3014C5.45545 42.3114 5.41681 42.3294 5.38279 42.3545C5.34877 42.3796 5.32005 42.4112 5.2983 42.4476C5.27655 42.4839 5.2622 42.5242 5.25609 42.5662C5.23752 42.6405 5.24686 42.7191 5.2823 42.7869C5.31775 42.8548 5.37682 42.9071 5.44821 42.9339C5.63146 43.0166 5.82022 43.0865 6.01312 43.1429L11.1747 44.7447C11.3181 44.788 11.4614 44.8384 11.6292 44.8889C11.5059 45.4843 11.2994 46.0308 11.1345 46.5873C10.9697 47.1438 10.8076 47.7076 10.6069 48.2799C10.4306 48.2352 10.2872 48.205 10.1481 48.1617C8.33009 47.5994 6.51063 47.0415 4.69978 46.4676C4.33225 46.3576 3.97751 46.2083 3.64166 46.0221C2.34123 45.2753 1.76916 44.0988 2.02724 42.5359C2.14885 41.8404 2.36146 41.1641 2.65953 40.5247C2.75084 40.3256 2.85526 40.133 2.97209 39.948C3.64166 38.8983 4.61662 38.4701 5.83963 38.548C6.35592 38.5887 6.8656 38.6908 7.35799 38.8522C9.09572 39.3914 10.8339 39.9287 12.5726 40.4641C15.1391 41.258 17.706 42.052 20.2734 42.8459C20.5444 42.9295 20.8154 43.0189 21.0763 43.1343C21.3243 43.2359 21.564 43.3569 21.7932 43.4961C23.0191 44.2588 23.5022 45.3834 23.3144 46.8007C23.2053 47.5476 22.993 48.2755 22.6836 48.9633C22.5494 49.2693 22.3821 49.5594 22.1846 49.8284C21.5437 50.6935 20.6562 51.0452 19.6038 50.9559C19.2714 50.9263 18.9429 50.863 18.6231 50.767C16.9026 50.2436 15.1821 49.7058 13.4615 49.1724C13.3641 49.158 13.2938 49.1147 13.1934 49.07Z" fill="#1EF868"/>
<path d="M103.455 63.4408C103.214 64.5942 102.981 65.7116 102.753 66.8059C102.584 66.9299 102.433 66.8491 102.295 66.8217C101.135 66.5824 99.9769 66.333 98.8185 66.0864C98.3281 65.9826 97.8392 65.8759 97.3488 65.775C97.2508 65.7538 97.1509 65.7427 97.0506 65.7418C96.9758 65.7449 96.904 65.7724 96.8461 65.8202C96.7882 65.8679 96.7474 65.9334 96.7299 66.0067C96.7124 66.0799 96.7191 66.1569 96.749 66.2259C96.779 66.295 96.8305 66.3523 96.8958 66.3892C97.0333 66.4534 97.1776 66.5018 97.3259 66.5334L107.025 68.5749C108.365 68.8633 109.702 69.1516 111.04 69.4256C111.236 69.4635 111.435 69.4813 111.635 69.4789C111.703 69.4776 111.768 69.4521 111.819 69.4069C111.87 69.3618 111.903 69.2999 111.913 69.2324C111.931 69.1667 111.927 69.0967 111.901 69.0337C111.875 68.9707 111.829 68.9183 111.77 68.8849C111.632 68.8206 111.488 68.7722 111.34 68.7407C110.428 68.5418 109.514 68.3462 108.598 68.1539C107.619 67.9477 106.638 67.7445 105.659 67.5354C105.556 67.5081 105.456 67.4754 105.356 67.4374C105.421 66.8419 105.58 66.2839 105.691 65.7072C105.801 65.1305 105.927 64.5971 106.053 64.0146C106.192 64.0172 106.33 64.0283 106.468 64.0478C108.379 64.4486 110.291 64.8523 112.203 65.2588C112.645 65.3466 113.072 65.5017 113.469 65.7188C114.69 66.4065 115.228 67.4748 115.14 68.8546C115.093 69.5735 114.942 70.2816 114.692 70.9567C114.573 71.2879 114.419 71.6055 114.233 71.904C114.001 72.2749 113.685 72.5857 113.312 72.8111C112.938 73.0365 112.517 73.1703 112.082 73.2016C111.432 73.2578 110.777 73.2116 110.141 73.0646C105.699 72.1284 101.258 71.1908 96.8169 70.2517C96.3414 70.1597 95.8788 70.0101 95.4391 69.8062C94.1143 69.1646 93.4863 68.0443 93.5752 66.5363C93.6311 65.8512 93.7614 65.1743 93.9637 64.5178C94.0319 64.2929 94.1182 64.074 94.2218 63.8632C94.7853 62.655 95.8405 62.0221 97.2815 62.159C97.795 62.2214 98.3047 62.3119 98.8084 62.4301C100.231 62.7184 101.65 63.0284 103.071 63.3298C103.174 63.3456 103.283 63.386 103.455 63.4408Z" fill="#1EF868"/>
<path d="M8.77523 62.515C8.81071 62.5828 8.83999 62.6537 8.86269 62.7269C9.05386 63.8015 9.24073 64.8761 9.4233 65.9507C9.25841 66.0949 9.06915 66.0949 8.89423 66.1223C7.36584 66.3948 5.836 66.6615 4.30617 66.934C4.15827 66.9588 4.01386 67.0014 3.87604 67.0609C3.81347 67.087 3.76163 67.1339 3.72905 67.1936C3.69648 67.2534 3.68511 67.3225 3.69682 67.3896C3.69984 67.4574 3.7249 67.5223 3.76815 67.5744C3.81141 67.6265 3.87046 67.6629 3.93626 67.678C4.08166 67.7075 4.231 67.7119 4.37786 67.6909C5.11912 67.5698 5.85894 67.4386 6.59877 67.3074C7.25544 67.1906 7.91067 67.058 8.5702 66.9527C8.81086 66.9205 9.04068 66.8322 9.24133 66.6948C9.44198 66.5573 9.6079 66.3746 9.72582 66.1612C10.0929 65.5393 10.4613 64.9194 10.8313 64.3013C10.9087 64.1716 10.9875 64.0433 11.0621 63.9121C11.8134 62.6058 12.9475 61.859 14.4142 61.6052C15.696 61.3789 16.9764 61.1467 18.2611 60.9319C18.7719 60.8372 19.2965 60.8465 19.8038 60.9593C20.1382 61.0369 20.4542 61.1801 20.7334 61.3807C21.0127 61.5814 21.2498 61.8355 21.4311 62.1286C21.7206 62.5823 21.9216 63.0872 22.0233 63.6165C22.1337 64.1586 22.2283 64.705 22.3028 65.2543C22.3727 65.7379 22.3518 66.2304 22.2412 66.7062C22.1667 67.0609 22.0131 67.394 21.7921 67.6805C21.5711 67.9669 21.2883 68.1992 20.9651 68.3599C20.6376 68.5283 20.2867 68.646 19.9242 68.7088C18.4288 68.9741 16.9319 69.2322 15.4351 69.4931C15.3766 69.5002 15.3177 69.504 15.2587 69.5047C15.2164 69.4199 15.1828 69.331 15.1584 69.2394C14.9815 68.2475 14.809 67.2555 14.6408 66.2636C14.6396 66.2041 14.6444 66.1447 14.6551 66.0862C14.8601 66.0415 15.068 65.9882 15.2788 65.9507L18.8819 65.3163C18.997 65.2977 19.1103 65.2688 19.2202 65.2298C19.2609 65.2189 19.299 65.1998 19.3322 65.1738C19.3654 65.1478 19.393 65.1153 19.4135 65.0783C19.4339 65.0413 19.4468 65.0006 19.4513 64.9585C19.4558 64.9164 19.4518 64.8739 19.4396 64.8333C19.4267 64.7505 19.3839 64.6753 19.3193 64.6221C19.2548 64.5689 19.1731 64.5415 19.0898 64.545C19.0068 64.5489 18.9243 64.56 18.8432 64.5781C17.7411 64.7704 16.6418 64.9626 15.5455 65.1549C15.4294 65.175 15.3161 65.2039 15.2014 65.2269C14.9185 65.278 14.6662 65.4371 14.4974 65.671C14.3798 65.8339 14.2666 66.0012 14.1619 66.1727C13.7619 66.8302 13.3647 67.492 12.9661 68.1523C12.8615 68.3253 12.7539 68.494 12.6464 68.6641C12.3214 69.1958 11.8854 69.65 11.3684 69.9953C10.8515 70.3406 10.266 70.5687 9.6527 70.6639C8.15011 70.9392 6.65612 71.2002 5.15353 71.454C4.62709 71.5532 4.08808 71.5654 3.55774 71.49C3.11872 71.4325 2.69851 71.2751 2.32907 71.0298C1.95963 70.7844 1.65069 70.4576 1.42573 70.0742C1.16715 69.6411 0.987498 69.165 0.895234 68.6685C0.79487 68.1581 0.704543 67.6462 0.63142 67.1301C0.56208 66.647 0.579074 66.1553 0.681602 65.6782C0.754357 65.3059 0.909208 64.9548 1.13476 64.6506C1.36031 64.3465 1.65082 64.097 1.9849 63.9207C2.4438 63.6799 2.93958 63.5181 3.45165 63.442L8.77523 62.515Z" fill="#1EF868"/>
<path d="M99.5966 42.4416C99.9091 43.5791 100.212 44.6749 100.521 45.8024C100.338 45.8644 100.184 45.922 100.028 45.9653L96.4107 46.9745C96.2637 47.0106 96.1198 47.0588 95.9806 47.1187C95.9175 47.1586 95.8687 47.2177 95.8412 47.2873C95.8137 47.357 95.8089 47.4336 95.8276 47.5062C95.8463 47.5788 95.8874 47.6435 95.9451 47.6909C96.0028 47.7384 96.0739 47.7663 96.1484 47.7704C96.2807 47.7581 96.4114 47.732 96.5383 47.6925C97.6008 47.4042 98.656 47.0827 99.7256 46.8174C99.9868 46.7611 100.23 46.6418 100.436 46.4698C100.641 46.2977 100.801 46.0781 100.903 45.8298C101.244 45.0829 101.6 44.3418 101.964 43.6051C102.137 43.2427 102.328 42.8895 102.537 42.5468C102.969 41.8546 103.612 41.3215 104.37 41.0272C104.663 40.9069 104.962 40.8029 105.267 40.7158C106.632 40.3313 107.998 39.9497 109.366 39.571C109.991 39.3804 110.649 39.3201 111.298 39.3937C112.019 39.4813 112.679 39.8422 113.144 40.4029C113.449 40.7623 113.683 41.1761 113.835 41.6227C114.116 42.3782 114.315 43.1617 114.43 43.9598C114.466 44.2429 114.471 44.5292 114.443 44.8133C114.412 45.2606 114.262 45.6913 114.01 46.0612C113.758 46.4311 113.413 46.727 113.01 46.9183C112.682 47.0854 112.339 47.2196 111.986 47.3191C110.285 47.805 108.579 48.275 106.874 48.7479C106.813 48.7623 106.752 48.7729 106.689 48.7796C106.517 48.4595 105.881 46.2421 105.727 45.4405C105.799 45.3049 105.94 45.2963 106.064 45.2631C107.529 44.8566 108.992 44.4495 110.455 44.042C110.65 43.9925 110.841 43.9294 111.028 43.8531C111.11 43.8306 111.181 43.7776 111.225 43.7047C111.269 43.6318 111.285 43.5447 111.267 43.4609C111.248 43.3696 111.196 43.2887 111.12 43.2337C111.045 43.1786 110.953 43.1533 110.86 43.1625C110.76 43.1703 110.662 43.1896 110.566 43.2201C109.2 43.5979 107.834 43.9814 106.464 44.3548C106.221 44.4155 105.994 44.5325 105.804 44.6964C105.613 44.8603 105.462 45.0667 105.365 45.2992C105.078 45.9393 104.765 46.5751 104.464 47.2124C104.385 47.3782 104.309 47.5469 104.231 47.7127C103.961 48.313 103.563 48.8461 103.066 49.2738C102.568 49.7015 101.982 50.0132 101.35 50.1868C100.021 50.5789 98.6833 50.9365 97.3484 51.307C96.9438 51.4152 96.5248 51.4585 96.1068 51.4354C95.7211 51.4244 95.3427 51.3266 94.9996 51.1492C94.6564 50.9718 94.3572 50.7193 94.1239 50.4103C93.8615 50.0828 93.6555 49.7134 93.5145 49.3174C93.2212 48.5308 93.0079 47.7164 92.8779 46.8866C92.8265 46.5203 92.8362 46.1481 92.9066 45.7851C92.9648 45.4444 93.0959 45.1205 93.2907 44.8358C93.4855 44.551 93.7394 44.3121 94.035 44.1357C94.3926 43.9221 94.7789 43.7614 95.182 43.6584C96.4036 43.3182 97.6261 42.9794 98.8496 42.642C99.0747 42.58 99.2998 42.5209 99.5966 42.4416Z" fill="#1EF868"/>
<path d="M0.19346 55.6363C0.37985 55.6262 0.541866 55.6118 0.705316 55.6104H3.46102C3.63367 55.6309 3.8087 55.6117 3.97288 55.5541C4.03966 55.1707 4.05988 54.7805 4.0331 54.3921C2.78572 54.209 1.53977 54.1427 0.316764 53.9595C0.249377 53.4852 0.361211 51.2721 0.460141 50.8828C0.941888 50.8828 19.806 53.4535 21.515 53.7577C21.5403 53.8465 21.5552 53.9379 21.5595 54.0302C21.4945 55.4037 21.4262 56.7792 21.3545 58.1565C21.3486 58.2033 21.3375 58.2492 21.3215 58.2935C21.3069 58.3064 21.2916 58.3184 21.2756 58.3296C21.2628 58.34 21.2475 58.347 21.2312 58.3497C14.2057 58.6121 7.18022 58.8731 0.154748 59.1326C0.110867 59.1243 0.0683857 59.1097 0.0285766 59.0894C-0.0560158 58.5199 0.0730235 57.9359 0.0844936 57.3592C0.0817836 56.7831 0.11819 56.2075 0.19346 55.6363ZM7.16015 55.5138C7.32646 55.645 7.49995 55.6003 7.66053 55.6017C9.64391 55.6017 11.6268 55.6017 13.6092 55.6017C13.7092 55.6039 13.8092 55.601 13.9089 55.5931C13.9605 55.5931 14.0523 55.6089 14.0322 55.5022C13.2465 55.3956 7.64333 54.7641 7.2175 54.8015C7.16196 55.0346 7.14262 55.2748 7.16015 55.5138Z" fill="#1EF868"/>
<path d="M39.5109 26.1415C39.2413 26.4298 37.1996 27.9826 36.7222 28.2594C36.4298 27.966 36.1582 27.6523 35.9092 27.3208C35.6368 27.0022 35.373 26.6764 35.1063 26.3534L34.3034 25.3817C34.0769 25.4364 33.9407 25.5922 33.7815 25.7046C33.6224 25.8171 33.4948 25.9281 33.3241 26.0593C33.393 26.1876 33.4446 26.3058 33.5148 26.414C34.0511 27.2252 34.5887 28.0355 35.1278 28.8448C35.2181 28.989 35.3013 29.1331 35.406 29.2932L32.9126 31.1675L21.6274 12.9796C21.6544 12.9265 21.6892 12.8779 21.7307 12.8354C22.8662 11.979 24.0037 11.125 25.143 10.2734C25.1949 10.2452 25.2497 10.2229 25.3065 10.207L39.5109 26.1415ZM32.2345 22.9177C32.1327 22.7821 32.0667 22.687 31.9922 22.5976L27.7883 17.537C27.7776 17.5241 27.763 17.515 27.7468 17.511C27.7367 17.511 27.7238 17.524 27.7124 17.5312C27.9389 17.9811 31.3312 23.082 31.6065 23.379C31.8317 23.2483 32.0422 23.0937 32.2345 22.9177Z" fill="#1EF868"/>
<path d="M69.8769 115.063L66.4029 115.815C66.3638 115.753 66.3311 115.687 66.3054 115.618C64.8334 108.732 63.3595 101.837 61.8837 94.9326C61.9927 94.8848 62.1048 94.8444 62.2192 94.8115C63.8164 94.4626 65.4136 94.1123 67.0123 93.7749C67.4027 93.6797 67.808 93.6621 68.2052 93.723C68.5026 93.7708 68.7866 93.8817 69.0382 94.0482C69.2898 94.2148 69.5034 94.4332 69.6647 94.689C69.9062 95.0732 70.0735 95.4997 70.158 95.9462C70.5957 97.9791 71.0306 100.012 71.4627 102.046C71.5186 102.309 71.5788 102.571 71.629 102.834C71.7087 103.23 71.7184 103.638 71.6577 104.037C71.6031 104.483 71.4178 104.902 71.1254 105.242C70.8331 105.581 70.4469 105.825 70.016 105.943C69.573 106.088 69.1084 106.158 68.6525 106.261C68.4486 106.301 68.2475 106.354 68.0503 106.419C68.2224 107.395 68.4489 108.338 68.6496 109.287C68.8503 110.236 69.0554 111.189 69.2575 112.14C69.4597 113.092 69.6604 114.046 69.8769 115.063ZM67.4065 103.511C67.9241 103.432 68.0116 103.338 67.9801 102.946C67.9665 102.829 67.9459 102.714 67.9184 102.6C67.8008 102.043 67.6823 101.486 67.5628 100.929C67.3057 99.7342 67.0481 98.5385 66.79 97.3418C66.7627 97.2114 66.7243 97.0836 66.6753 96.9597C66.6567 96.9031 66.6197 96.8543 66.5704 96.8212C66.521 96.788 66.4621 96.7723 66.4029 96.7766C66.2908 96.7873 66.1793 96.8037 66.0688 96.8257C66.0515 96.8802 66.0423 96.9371 66.0416 96.9943C66.4889 99.157 66.9492 101.32 67.4065 103.511Z" fill="#1EF868"/>
<path d="M87.2444 80.3396C87.7376 79.6057 89.2 77.7141 89.4925 77.4258C89.5972 77.4979 89.709 77.57 89.8137 77.6493L103.896 88.4813C104.248 88.7394 104.557 89.0507 104.814 89.404C105.069 89.7491 105.238 90.1508 105.307 90.5754C105.375 90.9999 105.342 91.4349 105.208 91.8435C105.075 92.2773 104.871 92.686 104.606 93.0531C104.319 93.4612 104.018 93.8706 103.693 94.2527C103.466 94.5208 103.21 94.7626 102.93 94.9736C102.596 95.2299 102.203 95.3959 101.787 95.4557C101.371 95.5155 100.947 95.4672 100.555 95.3153C100.176 95.1812 99.8198 94.9865 99.5017 94.7386C97.8949 93.5073 96.29 92.2731 94.6871 91.0361C94.6256 90.9843 94.5667 90.9294 94.5107 90.8717C94.6842 90.5329 96.0191 88.7523 96.4492 88.2838C96.5926 88.2751 96.6757 88.3948 96.7761 88.4726C98.1439 89.5193 99.5108 90.569 100.877 91.6215C100.993 91.7161 101.115 91.8047 101.241 91.8867C101.275 91.912 101.315 91.9293 101.356 91.9373C101.398 91.9454 101.441 91.944 101.482 91.9332C101.524 91.9224 101.562 91.9026 101.595 91.8751C101.627 91.8476 101.653 91.8132 101.671 91.7743C101.692 91.7477 101.708 91.7169 101.716 91.684C101.725 91.651 101.726 91.6166 101.721 91.583C101.715 91.5494 101.703 91.5173 101.684 91.4889C101.665 91.4605 101.641 91.4364 101.612 91.4182C101.477 91.2942 101.325 91.1832 101.182 91.0707L87.6587 80.6698C87.5283 80.5688 87.4007 80.4636 87.2444 80.3396Z" fill="#1EF868"/>
<path d="M40.7344 25.5843C40.6713 25.4516 40.624 25.3637 40.591 25.2729C40.4089 24.8403 40.2426 24.3991 40.0433 23.9753C39.7019 23.2095 39.4507 22.4063 39.2949 21.5819C38.3562 17.1672 37.4104 12.7535 36.4574 8.34071C36.423 8.17779 36.3771 8.01775 36.3298 7.82455C36.2326 7.83363 36.1365 7.85247 36.0431 7.88078C35.4696 8.11723 34.9047 8.36233 34.3354 8.60167C34.1835 8.6651 34.0286 8.72422 33.8824 8.78189C33.6501 8.47623 32.9504 6.8701 32.6006 5.84644C32.6752 5.79248 32.7538 5.74428 32.8357 5.70227C34.7264 4.89968 36.618 4.09854 38.5106 3.29884C38.5565 3.27865 38.6038 3.26567 38.6826 3.23828C38.7362 3.31494 38.7841 3.39541 38.826 3.47906C39.1472 4.23599 39.4683 4.99147 39.778 5.75273C39.8575 5.95581 39.9184 6.16573 39.9601 6.3799C40.5441 9.13848 41.1248 11.8971 41.7022 14.6557C42.1285 16.6741 42.5586 18.6926 42.9925 20.7111C43.0098 20.7904 43.0341 20.8697 43.0642 20.9836C43.178 20.9628 43.2901 20.9339 43.3997 20.8971C44.0779 20.6159 44.7546 20.329 45.4328 20.0436C45.5533 19.9931 45.678 19.9484 45.8257 19.8907C46.1124 20.3651 46.2673 20.8769 46.4823 21.3599C46.6974 21.8429 46.8924 22.3461 47.0874 22.8146C47.0761 22.8421 47.0627 22.8686 47.0472 22.8939C47.0389 22.9086 47.027 22.921 47.0128 22.93C45.061 23.7595 43.1092 24.5885 41.1573 25.417C41.0254 25.4733 40.9007 25.5223 40.7344 25.5843Z" fill="#1EF868"/>
<path d="M43.4022 1.71842C44.6009 1.48053 45.7421 1.24985 46.9107 1.05809C46.9551 1.17488 46.9952 1.26283 47.0225 1.35654C47.5501 3.24718 48.0758 5.1383 48.5996 7.02991C48.6465 7.20668 48.7089 7.37892 48.786 7.54462C48.8434 6.88429 48.7072 6.34795 48.6742 5.80728C48.6412 5.26662 48.5638 4.70577 48.505 4.15357C48.4462 3.60138 48.376 3.0535 48.3358 2.49986C48.2957 1.94622 48.181 1.40556 48.201 0.851921C48.2457 0.822018 48.2939 0.797803 48.3444 0.779833C49.3108 0.588078 50.2772 0.400647 51.2722 0.203125C51.3063 0.29637 51.3304 0.393048 51.3439 0.491479C51.3668 1.12874 51.385 1.76648 51.3984 2.40471C51.4743 5.95002 51.5417 9.49389 51.6321 13.0378C51.6666 13.5233 51.739 14.0054 51.8486 14.4795C52.2615 16.6898 52.683 18.9 53.0988 21.1117C53.1289 21.2731 53.1447 21.439 53.1719 21.6379C52.0808 21.8801 50.9955 22.0531 49.9201 22.2694C49.8329 22.2775 49.745 22.2775 49.6578 22.2694C49.6162 22.0906 49.5717 21.932 49.5416 21.7691C49.1258 19.5589 48.7057 17.3501 48.3 15.137C48.1763 14.4436 47.9881 13.7635 47.7379 13.1055C46.3481 9.50686 44.9693 5.90244 43.6015 2.29225C43.5442 2.125 43.4854 1.95055 43.4022 1.71842Z" fill="#1EF868"/>
<path d="M54.4179 94.7519C55.0186 94.7519 57.1908 95.0259 57.5965 95.1528C57.5564 95.3113 57.5191 95.4714 57.4732 95.63C56.3506 99.442 55.2351 103.257 54.0967 107.065C53.9223 107.73 53.802 108.408 53.7368 109.093C53.5318 110.679 53.3411 112.256 53.1461 113.838C53.0701 114.455 53.0028 115.072 52.921 115.688C52.9067 115.8 52.878 115.911 52.8565 116.017C52.4651 116.053 50.0105 115.77 49.3366 115.614C49.3263 115.504 49.3239 115.393 49.3294 115.283C49.5115 113.818 49.6979 112.352 49.88 110.887C50.0234 109.771 50.1668 108.656 50.2886 107.539C50.3173 107.188 50.3173 106.835 50.2886 106.484C50.247 105.662 50.1868 104.841 50.1452 104.02C50.0607 102.494 49.9861 100.967 49.9015 99.442C49.8212 98.0175 49.7323 96.5931 49.6506 95.1686C49.6232 94.8267 49.6141 94.4835 49.6234 94.1406C50.237 94.1406 50.8062 94.2545 51.3797 94.3223C51.9532 94.3901 52.5382 94.4492 53.0859 94.5429C53.202 94.7159 53.159 94.8716 53.1533 95.0187C53.0912 96.7305 53.0271 98.4419 52.9612 100.153C52.9339 100.549 52.9368 100.948 52.9698 101.344C53.2006 100.623 53.3225 99.8846 53.4831 99.1537C53.6436 98.4227 53.7856 97.6744 53.9505 96.9377C54.1154 96.2009 54.2301 95.4656 54.4179 94.7519Z" fill="#1EF868"/>
<path d="M103.86 22.5108L101.434 24.6071C101.219 24.4109 101.022 24.1957 100.845 23.9641C100.667 23.7637 100.497 23.5575 100.322 23.3542L99.7927 22.7414C99.7612 22.7307 99.7285 22.7239 99.6953 22.7213C99.6791 22.7257 99.6643 22.7341 99.6522 22.7458L96.0363 25.8571C95.9732 25.9119 95.9072 25.9624 95.8183 26.0344C96.2485 26.6241 96.7517 27.1187 97.1747 27.6694C96.961 27.9693 95.5373 29.2352 94.6771 29.8883C94.5928 29.8213 94.5129 29.7491 94.4376 29.672C94.1193 29.3044 93.8068 28.9324 93.4885 28.5647C93.4153 28.4797 93.3307 28.4033 93.2547 28.3269C92.902 28.5561 89.0022 31.9125 88.6122 32.3234C89.1499 32.9967 89.7392 33.634 90.3055 34.3419C89.4796 35.0714 88.6567 35.775 87.8681 36.4599C87.8361 36.4628 87.804 36.4628 87.772 36.4599C87.7563 36.4546 87.7421 36.4457 87.7304 36.4339L83.8679 31.9212C83.8364 31.8756 83.8091 31.8274 83.7861 31.777C83.8223 31.7253 83.8631 31.677 83.908 31.6328C89.2244 27.0336 94.5404 22.4372 99.8558 17.8438C100.176 18.1162 103.543 22.0451 103.86 22.5108Z" fill="#1EF868"/>
<path d="M112.136 79.1389C111.276 81.0665 110.447 82.9279 109.601 84.8079C109.484 84.7676 109.407 84.7459 109.333 84.7142C106.776 83.6271 90.6786 76.3073 90.2341 76.0304C90.3144 75.6815 92.4192 70.9453 92.6974 70.4883C93.0472 70.5676 95.2194 71.5422 95.6308 71.8104C95.3441 72.5803 94.9469 73.3185 94.643 74.0841C94.9799 74.3176 98.8482 76.078 99.3199 76.2121C99.6683 75.6138 99.8777 74.9376 100.229 74.3075C100.577 74.4287 100.916 74.5732 101.244 74.7401C101.582 74.8842 101.914 75.0414 102.248 75.1942L103.251 75.6585C103.178 76.029 102.995 76.3303 102.858 76.649C102.722 76.9676 102.572 77.2906 102.428 77.6351C102.884 77.9235 103.372 78.0907 103.832 78.3113C104.292 78.5319 104.744 78.7266 105.201 78.9327L106.616 79.57C107.069 79.7733 107.515 79.9939 107.996 80.1813C108.409 79.3912 108.701 78.5867 109.095 77.8154C109.48 77.8831 109.789 78.0864 110.122 78.2277C110.455 78.369 110.763 78.5161 111.083 78.6602C111.402 78.8044 111.751 78.9601 112.136 79.1389Z" fill="#1EF868"/>
<path d="M98.0349 58.5795V60.1423C97.7625 60.2332 97.4944 60.1957 97.2334 60.2144C96.9725 60.2332 96.7001 60.2433 96.4334 60.2534C96.1667 60.2635 95.8986 60.275 95.6319 60.275C95.3683 60.2989 95.1028 60.2931 94.8405 60.2577C94.7602 59.8756 94.5695 54.2311 94.6111 53.4814C94.6635 53.4522 94.7201 53.4313 94.7788 53.4194C95.7136 53.3848 96.6485 53.3531 97.5833 53.3242C97.6564 53.3267 97.7293 53.3349 97.8012 53.3487C97.9116 53.862 97.8012 54.3897 97.9245 54.89C98.1123 54.9779 98.2973 54.9361 98.4765 54.9318C99.8625 54.8933 101.248 54.8515 102.634 54.8064C104.068 54.7588 105.502 54.7026 106.936 54.6622C108.513 54.6132 110.074 54.5728 111.644 54.5252C112.88 54.4892 114.116 54.4488 115.351 54.4113C115.514 54.4113 115.677 54.4113 115.831 54.4113C115.954 54.8842 116.04 56.9315 115.983 57.9292C115.895 57.956 115.805 57.9758 115.713 57.9883C115.296 58.0114 114.879 58.033 114.462 58.046C111.791 58.1268 109.118 58.2017 106.447 58.2853C103.776 58.369 101.142 58.4612 98.4837 58.5506C98.3575 58.5535 98.2256 58.5665 98.0349 58.5795Z" fill="#1EF868"/>
<path d="M27.9498 31.7713C28.1935 31.4829 28.4215 31.1946 28.6667 30.9149C28.9119 30.6351 29.1054 30.3252 29.3836 30.093C29.8237 30.3958 31.6446 31.9673 31.9013 32.2557C31.8879 32.3011 31.8681 32.3443 31.8425 32.384C30.641 33.846 29.439 35.3007 28.2365 36.7483C28.043 36.741 27.9498 36.6041 27.8394 36.5147C24.7998 33.9666 21.7612 31.4195 18.7235 28.8733L12.3002 23.484C12.1568 23.3672 12.0235 23.2475 11.9102 23.1495C11.9056 23.1184 11.9027 23.0871 11.9016 23.0558C11.9018 23.0393 11.9068 23.0233 11.9159 23.0096C12.6185 22.1561 13.3215 21.3031 14.025 20.4505C14.0576 20.4191 14.0937 20.3915 14.1326 20.3683C14.1526 20.3668 14.1727 20.3668 14.1928 20.3683C14.2094 20.3722 14.2253 20.3785 14.2401 20.387L14.3204 20.4462L14.3605 20.4764L14.4752 20.5745L27.6458 31.5896L27.7233 31.653L27.762 31.6848L27.8035 31.7136C27.8174 31.7231 27.8317 31.7317 27.8466 31.7395L27.9498 31.7713Z" fill="#1EF868"/>
<path d="M42.2721 110.528L44.407 111.22C44.2966 111.796 44.0844 112.297 43.921 112.819C43.7575 113.341 43.5826 113.87 43.4077 114.405C43.3362 114.408 43.2645 114.404 43.1941 114.392C41.4907 113.854 39.7879 113.314 38.0855 112.77C37.9923 112.741 37.9034 112.696 37.8188 112.661C37.8819 112.242 41.9639 99.1622 44.0414 92.7117C44.0873 92.5675 44.1446 92.4349 44.1934 92.3008C44.7225 92.3844 47.2473 93.1947 47.6072 93.398C47.1885 94.8196 46.724 96.2354 46.2853 97.6584C45.8465 99.0814 45.3935 100.509 44.9461 101.933C44.4988 103.358 44.0486 104.781 43.6084 106.208C43.1682 107.635 42.7051 109.051 42.2721 110.528Z" fill="#1EF868"/>
<path d="M73.7352 24.8558C72.9996 24.6107 70.7586 23.6375 70.459 23.4314C70.4605 23.3825 70.4682 23.3341 70.4819 23.2872C73.1975 16.8098 75.914 10.3324 78.6315 3.85501C78.6429 3.82762 78.6802 3.81176 78.7361 3.76562C79.8086 4.19816 80.8868 4.66529 81.9392 5.11945C81.9567 5.14783 81.9715 5.17775 81.9836 5.20884C81.9886 5.2248 81.9886 5.2419 81.9836 5.25786C79.2719 11.7381 76.5597 18.2184 73.847 24.6987C73.8143 24.7542 73.7769 24.8068 73.7352 24.8558Z" fill="#1EF868"/>
<path d="M17.8136 83.8555L19.7965 86.739C19.7949 86.7691 19.7906 86.7991 19.7836 86.8284C19.7778 86.8446 19.7673 86.8586 19.7535 86.8688C18.9888 87.4051 18.2241 87.9414 17.4594 88.4778C17.3777 88.534 17.2917 88.583 17.2114 88.6335C16.9375 88.3956 15.6342 86.5487 15.1597 85.7298C15.4005 85.4717 17.101 84.2649 17.8136 83.8555Z" fill="#1EF868"/>
<path d="M67.5897 11.6304C67.5897 11.5497 67.5768 11.4689 67.5682 11.3594C67.6787 11.4661 67.617 11.541 67.5797 11.6189L67.5897 11.6304Z" fill="white"/>
<path d="M35.1061 99.5273C35.1205 99.5562 35.1377 99.5836 35.1492 99.6124C35.1506 99.6278 35.1506 99.6432 35.1492 99.6585C35.1362 99.6456 35.119 99.634 35.1147 99.6196C35.1068 99.5903 35.1011 99.5604 35.0975 99.5302L35.1061 99.5273Z" fill="white"/>
<path d="M83.2022 21.8768C83.2251 21.8134 83.2481 21.7485 83.2696 21.6836C83.3097 21.7816 83.3255 21.8725 83.1921 21.8667L83.2022 21.8768Z" fill="white"/>
<path d="M44.1792 47.9799C44.1821 47.1025 44.4439 46.2456 44.9316 45.5179C45.4192 44.7902 46.1106 44.2244 46.9183 43.8923C47.726 43.5601 48.6135 43.4766 49.4685 43.6521C50.3235 43.8277 51.1074 44.2545 51.7209 44.8785C52.3344 45.5025 52.7499 46.2956 52.9147 47.1573C53.0795 48.019 52.9863 48.9105 52.6468 49.7188C52.3073 50.5272 51.7368 51.216 51.0076 51.698C50.2784 52.18 49.4234 52.4335 48.5508 52.4264C46.0876 52.4018 44.142 50.356 44.1792 47.9799ZM50.7359 48.8536C50.7404 48.7009 50.7139 48.5489 50.6579 48.4069C50.6018 48.2649 50.5175 48.1359 50.4101 48.0278C50.3026 47.9198 50.1744 47.835 50.0331 47.7787C49.8919 47.7223 49.7407 47.6956 49.5889 47.7002C49.2928 47.704 49.0101 47.8246 48.8017 48.0361C48.5933 48.2475 48.4759 48.5329 48.4748 48.8306C48.4748 49.1365 48.5957 49.4299 48.8108 49.6462C49.0259 49.8625 49.3176 49.984 49.6218 49.984C49.918 49.9806 50.2009 49.8601 50.4094 49.6486C50.6178 49.437 50.7351 49.1515 50.7359 48.8536Z" fill="#1EF868"/>
<path d="M66.7022 52.1353C66.1575 52.141 65.6171 52.0368 65.113 51.8291C64.609 51.6213 64.1514 51.3141 63.7673 50.9256C63.3832 50.5371 63.0804 50.0751 62.8768 49.567C62.6731 49.0589 62.5728 48.5149 62.5816 47.9672C62.5945 45.4124 64.7079 43.8149 66.7395 43.8322C68.7712 43.8495 70.8329 45.4816 70.8358 47.9888C70.8404 48.5355 70.7366 49.0776 70.5303 49.5834C70.3241 50.0892 70.0197 50.5486 69.6348 50.9347C69.2499 51.3208 68.7923 51.6259 68.2888 51.832C67.7852 52.0382 67.2459 52.1413 66.7022 52.1353ZM67.8493 49.1422C67.8501 48.9164 67.7845 48.6953 67.6606 48.5069C67.5368 48.3184 67.3603 48.1711 67.1534 48.0833C66.9464 47.9955 66.7183 47.9712 66.4977 48.0135C66.277 48.0558 66.0738 48.1628 65.9135 48.321C65.7532 48.4792 65.643 48.6815 65.5968 48.9025C65.5506 49.1236 65.5704 49.3534 65.6538 49.5631C65.7372 49.7728 65.8805 49.953 66.0655 50.0811C66.2505 50.2091 66.4691 50.2792 66.6936 50.2826C66.9964 50.2827 67.2872 50.1632 67.5033 49.95C67.7194 49.7367 67.8436 49.4466 67.8493 49.1422Z" fill="#1EF868"/>
<path d="M55.391 80.9357C53.735 80.8997 52.2367 80.7916 50.7671 80.4513C50.6527 80.4275 50.5401 80.3957 50.4302 80.3561C50.2122 80.2786 50.03 80.1235 49.918 79.9201C49.806 79.7167 49.7719 79.4791 49.8222 79.2521C49.8725 79.0252 50.0037 78.8246 50.191 78.6883C50.3783 78.5519 50.6087 78.4893 50.8388 78.5121C50.9387 78.5198 51.0378 78.5348 51.1356 78.5568C52.2952 78.8065 53.4768 78.9388 54.6627 78.9519C58.0824 79.0427 61.4742 78.3106 64.5557 76.8166C66.482 75.878 68.2603 74.6591 69.8334 73.1992C69.9767 73.0738 70.0986 72.9411 70.2434 72.8272C70.4311 72.6684 70.6732 72.5898 70.9178 72.6081C71.1624 72.6264 71.3902 72.7402 71.5525 72.9253C71.7097 73.1021 71.7967 73.331 71.7967 73.5683C71.7967 73.8056 71.7097 74.0345 71.5525 74.2113C71.4857 74.2864 71.4149 74.3576 71.3403 74.4247C68.6634 76.9363 65.6052 78.8005 62.0996 79.8876C60.3455 80.4378 58.5304 80.7676 56.6957 80.8694L55.391 80.9357Z" fill="#1EF868"/>
<path d="M55.8012 60.2696C55.9811 60.2676 56.1596 60.302 56.3261 60.3708C56.4925 60.4395 56.6436 60.5412 56.7702 60.6697C56.8969 60.7983 56.9965 60.9511 57.0633 61.1192C57.1301 61.2872 57.1626 61.467 57.159 61.6479C57.1572 61.9186 57.0758 62.1828 56.9249 62.407C56.774 62.6312 56.5605 62.8054 56.3112 62.9076C56.0619 63.0098 55.7881 63.0354 55.5243 62.9813C55.2606 62.9271 55.0187 62.7955 54.8292 62.6032C54.6398 62.4109 54.5112 62.1664 54.4598 61.9007C54.4085 61.6349 54.4366 61.3599 54.5406 61.1102C54.6446 60.8605 54.8198 60.6474 55.0442 60.4978C55.2685 60.3481 55.532 60.2688 55.8012 60.2696Z" fill="#1EF868"/>
<path d="M60.3251 60.2697C60.5051 60.2669 60.6838 60.3008 60.8504 60.3693C61.017 60.4378 61.168 60.5395 61.2945 60.6683C61.421 60.7971 61.5202 60.9503 61.5862 61.1186C61.6522 61.287 61.6836 61.4671 61.6786 61.648C61.6794 62.0045 61.5408 62.347 61.2927 62.6017C61.0446 62.8563 60.7068 63.0026 60.3524 63.0091C59.9886 63.0129 59.6381 62.8715 59.3779 62.6158C59.1177 62.36 58.969 62.011 58.9645 61.6451C58.9622 61.4645 58.9957 61.2852 59.0632 61.1177C59.1307 60.9503 59.2307 60.7981 59.3574 60.67C59.4841 60.5419 59.635 60.4405 59.8012 60.3718C59.9673 60.303 60.1454 60.2683 60.3251 60.2697Z" fill="#1EF868"/>
</svg>
